<svg xmlns="http://www.w3.org/2000/svg" viewBox="0 0 1920 1080" font-family="Inter, system-ui, -apple-system, sans-serif">
  <defs>
    <linearGradient id="bg" x1="0" y1="0" x2="0" y2="1">
      <stop offset="0" stop-color="#0b1220"/>
      <stop offset="1" stop-color="#080e1a"/>
    </linearGradient>
    <linearGradient id="card" x1="0" y1="0" x2="0" y2="1">
      <stop offset="0" stop-color="#121a2a"/>
      <stop offset="1" stop-color="#0e1626"/>
    </linearGradient>
    <linearGradient id="cardDim" x1="0" y1="0" x2="0" y2="1">
      <stop offset="0" stop-color="#0e1424"/>
      <stop offset="1" stop-color="#0a121e"/>
    </linearGradient>
    <linearGradient id="libBg" x1="0" y1="0" x2="0" y2="1">
      <stop offset="0" stop-color="#0e1830"/>
      <stop offset="1" stop-color="#0a1322"/>
    </linearGradient>
    <radialGradient id="libGlow" cx="0.5" cy="0.5" r="0.7">
      <stop offset="0" stop-color="#00e5a0" stop-opacity="0.18"/>
      <stop offset="1" stop-color="#00e5a0" stop-opacity="0"/>
    </radialGradient>
    <linearGradient id="sys1Tint" x1="0" y1="0" x2="0" y2="1">
      <stop offset="0" stop-color="#00e5a0" stop-opacity="0.04"/>
      <stop offset="1" stop-color="#00e5a0" stop-opacity="0.01"/>
    </linearGradient>
    <linearGradient id="sys2Tint" x1="0" y1="0" x2="0" y2="1">
      <stop offset="0" stop-color="#fbbf24" stop-opacity="0.035"/>
      <stop offset="1" stop-color="#fbbf24" stop-opacity="0.01"/>
    </linearGradient>
    <pattern id="dots" width="24" height="24" patternUnits="userSpaceOnUse">
      <circle cx="1.5" cy="1.5" r="1" fill="#94a3b8" fill-opacity="0.04"/>
    </pattern>
    <marker id="arr" viewBox="0 0 10 10" refX="9" refY="5" markerWidth="9" markerHeight="9" orient="auto-start-reverse">
      <path d="M 0 0 L 10 5 L 0 10 Z" fill="#94a3b8"/>
    </marker>
    <marker id="arr-mint" viewBox="0 0 10 10" refX="9" refY="5" markerWidth="9" markerHeight="9" orient="auto-start-reverse">
      <path d="M 0 0 L 10 5 L 0 10 Z" fill="#00e5a0"/>
    </marker>
    <marker id="arr-amber" viewBox="0 0 10 10" refX="9" refY="5" markerWidth="9" markerHeight="9" orient="auto-start-reverse">
      <path d="M 0 0 L 10 5 L 0 10 Z" fill="#fbbf24"/>
    </marker>
    <marker id="arr-dim" viewBox="0 0 10 10" refX="9" refY="5" markerWidth="9" markerHeight="9" orient="auto-start-reverse">
      <path d="M 0 0 L 10 5 L 0 10 Z" fill="#475569"/>
    </marker>
    <filter id="shadow" x="-10%" y="-10%" width="120%" height="130%">
      <feGaussianBlur in="SourceAlpha" stdDeviation="3"/>
      <feOffset dy="3"/>
      <feComponentTransfer><feFuncA type="linear" slope="0.35"/></feComponentTransfer>
      <feMerge><feMergeNode/><feMergeNode in="SourceGraphic"/></feMerge>
    </filter>
    <filter id="libShadow" x="-15%" y="-10%" width="130%" height="120%">
      <feGaussianBlur in="SourceAlpha" stdDeviation="8"/>
      <feOffset dy="6"/>
      <feComponentTransfer><feFuncA type="linear" slope="0.5"/></feComponentTransfer>
      <feMerge><feMergeNode/><feMergeNode in="SourceGraphic"/></feMerge>
    </filter>
  </defs>

  <!-- Background -->
  <rect width="1920" height="1080" fill="url(#bg)"/>
  <rect width="1920" height="1080" fill="url(#dots)"/>

  <!-- ─── HEADER ─── -->
  <text x="80" y="64" font-size="14" font-weight="600" letter-spacing="3" fill="#00e5a0">FIGURE · ZOOMED OUT · TWO SYSTEMS · ONE LIBRARY</text>
  <text x="80" y="116" font-size="38" font-weight="700" fill="#ffffff" letter-spacing="-0.4">Two independent agent systems · one shared library</text>
  <text x="80" y="148" font-size="16" fill="#94a3b8">Each is a self-contained loop. They meet only at <tspan font-weight="600" fill="#00e5a0">library.js</tspan> — System 1 reads it, System 2 grows it.</text>

  <!-- ════════════════════════════════════════════════════════════════ -->
  <!-- SYSTEM 1 outer container (left cluster)                            -->
  <!-- ════════════════════════════════════════════════════════════════ -->
  <g>
    <rect x="60" y="200" width="680" height="730" rx="22" fill="url(#sys1Tint)" stroke="#00e5a0" stroke-width="1.5" stroke-opacity="0.32" stroke-dasharray="8 6"/>
    <!-- Cluster tag (cuts the top edge) -->
    <rect x="86" y="190" width="436" height="22" rx="3" fill="#0b1220"/>
    <text x="100" y="207" font-size="13" font-weight="700" letter-spacing="2.4" fill="#00e5a0">SYSTEM 1 · PER-GENERATION · USER-FACING</text>
  </g>

  <!-- TOP ROW · retrieval chain (PDF → Retriever → Planner → Memory) -->
  <!-- 4 cards, w=144, gap=12, start at x=82 -->
  <!-- 4*144 + 3*12 = 612, spans x=82-694 -->

  <!-- 1. PDF + highlight -->
  <g filter="url(#shadow)">
    <rect x="82" y="240" width="144" height="100" rx="9" fill="url(#card)" stroke="#1e293b" stroke-width="1.2"/>
    <rect x="82" y="240" width="144" height="3" fill="#00e5a0"/>
    <g transform="translate(196, 252)" stroke="#00e5a0" stroke-width="1.5" fill="none" stroke-linecap="round" stroke-linejoin="round">
      <path d="M 4 1 L 14 1 L 18 5 L 18 19 L 4 19 Z"/>
      <line x1="7" y1="8" x2="14" y2="8"/>
      <line x1="7" y1="12" x2="14" y2="12"/>
    </g>
    <text x="94" y="268" font-size="14" font-weight="700" fill="#ffffff">PDF + highlight</text>
    <text x="94" y="290" font-size="10" font-weight="700" letter-spacing="1.4" fill="#00e5a0">USER INPUT</text>
    <text x="94" y="310" font-size="11" fill="#cbd5e1">drop · drag select</text>
  </g>

  <!-- 2. Retriever -->
  <g filter="url(#shadow)">
    <rect x="238" y="240" width="144" height="100" rx="9" fill="url(#card)" stroke="#1e293b" stroke-width="1.2"/>
    <rect x="238" y="240" width="144" height="3" fill="#00e5a0"/>
    <g transform="translate(354, 252)" stroke="#00e5a0" stroke-width="1.5" fill="none" stroke-linecap="round" stroke-linejoin="round">
      <rect x="0" y="0" width="11" height="14" rx="1.2"/>
      <line x1="2.5" y1="4" x2="8.5" y2="4"/>
      <line x1="2.5" y1="7" x2="8.5" y2="7"/>
      <circle cx="13" cy="11" r="3.5"/>
      <line x1="15.5" y1="13.5" x2="18" y2="16"/>
    </g>
    <text x="250" y="268" font-size="14" font-weight="700" fill="#ffffff">Retriever</text>
    <text x="250" y="290" font-size="10" font-weight="700" letter-spacing="1.4" fill="#00e5a0">RAG · BM25</text>
    <text x="250" y="310" font-size="11" fill="#cbd5e1">top-K chunks</text>
  </g>

  <!-- 3. Planner -->
  <g filter="url(#shadow)">
    <rect x="394" y="240" width="144" height="100" rx="9" fill="url(#card)" stroke="#1e293b" stroke-width="1.2"/>
    <rect x="394" y="240" width="144" height="3" fill="#00e5a0"/>
    <g transform="translate(510, 254)" stroke="#00e5a0" stroke-width="1.5" fill="none" stroke-linecap="round" stroke-linejoin="round">
      <circle cx="1.5" cy="3" r="1.4" fill="#00e5a0"/>
      <line x1="5" y1="3" x2="17" y2="3"/>
      <circle cx="1.5" cy="9" r="1.4" fill="#00e5a0"/>
      <line x1="5" y1="9" x2="17" y2="9"/>
      <circle cx="1.5" cy="15" r="1.4" fill="#00e5a0"/>
      <line x1="5" y1="15" x2="17" y2="15"/>
    </g>
    <text x="406" y="268" font-size="14" font-weight="700" fill="#ffffff">Planner</text>
    <text x="406" y="290" font-size="10" font-weight="700" letter-spacing="1.4" fill="#00e5a0">PEDAGOGY</text>
    <text x="406" y="310" font-size="11" fill="#cbd5e1">2–4 beats · JSON</text>
  </g>

  <!-- 4. Memory (mint border) -->
  <g filter="url(#shadow)">
    <rect x="550" y="240" width="144" height="100" rx="9" fill="url(#card)" stroke="#00e5a0" stroke-width="1.6"/>
    <rect x="550" y="240" width="144" height="3" fill="#00e5a0"/>
    <g transform="translate(666, 254)" stroke="#00e5a0" stroke-width="1.5" fill="none" stroke-linecap="round" stroke-linejoin="round">
      <rect x="0" y="0" width="18" height="3.5" rx="0.5"/>
      <rect x="2.5" y="6" width="13" height="3.5" rx="0.5"/>
      <rect x="5" y="12" width="8" height="3.5" rx="0.5"/>
    </g>
    <text x="562" y="268" font-size="14" font-weight="700" fill="#ffffff">Memory</text>
    <text x="562" y="290" font-size="10" font-weight="700" letter-spacing="1.4" fill="#00e5a0">CACHE · ON PLAN</text>
    <text x="562" y="310" font-size="11" fill="#cbd5e1">cosine match</text>
  </g>

  <!-- top-row forward arrows · y=290 -->
  <g stroke="#94a3b8" stroke-width="2" fill="none">
    <line x1="228" y1="290" x2="234" y2="290" marker-end="url(#arr)"/>
    <line x1="384" y1="290" x2="390" y2="290" marker-end="url(#arr)"/>
    <line x1="540" y1="290" x2="546" y2="290" marker-end="url(#arr)"/>
  </g>

  <!-- Memory → Author connector (curve down-left) -->
  <g stroke="#94a3b8" stroke-width="2" fill="none">
    <path d="M 622 342 C 622 380, 400 380, 400 408" marker-end="url(#arr)"/>
  </g>

  <!-- ─── TRIANGLE LOOP · Author / iframe / Verifier ─── -->
  <!-- Author at top, iframe bottom-left, Verifier bottom-right -->

  <!-- Author (top of triangle, mint border, branch point) -->
  <g filter="url(#shadow)">
    <rect x="320" y="412" width="160" height="110" rx="10" fill="url(#card)" stroke="#00e5a0" stroke-width="1.8"/>
    <rect x="320" y="412" width="160" height="3" fill="#00e5a0"/>
    <g transform="translate(448, 426)" stroke="#00e5a0" stroke-width="1.6" fill="none" stroke-linecap="round" stroke-linejoin="round">
      <path d="M 13 2 L 17 6 L 6 17 L 2 17 L 2 13 Z"/>
      <line x1="11" y1="4" x2="15" y2="8"/>
    </g>
    <text x="332" y="442" font-size="15" font-weight="700" fill="#ffffff">Author</text>
    <text x="332" y="464" font-size="10" font-weight="700" letter-spacing="1.4" fill="#00e5a0">STREAMING · BRANCHES</text>
    <text x="332" y="484" font-size="11" fill="#cbd5e1">html / css / js / py</text>
    <text x="332" y="510" font-size="10" font-family="JetBrains Mono, ui-monospace, monospace" fill="#94a3b8">Sonnet</text>
  </g>

  <!-- iframe (bottom-left of triangle, mint border) -->
  <g filter="url(#shadow)">
    <rect x="100" y="660" width="160" height="110" rx="10" fill="url(#libBg)" stroke="#00e5a0" stroke-width="1.8"/>
    <rect x="100" y="660" width="160" height="3" fill="#00e5a0"/>
    <circle cx="248" cy="694" r="13" fill="#00e5a0" fill-opacity="0.18"/>
    <polygon points="243,687 256,694 243,701" fill="#00e5a0"/>
    <text x="112" y="690" font-size="15" font-weight="700" fill="#ffffff">user iframe</text>
    <text x="112" y="714" font-size="10" font-weight="700" letter-spacing="1.4" fill="#00e5a0">LIVE · SANDBOXED</text>
    <text x="112" y="734" font-size="11" fill="#cbd5e1">re-renders on fix</text>
    <text x="112" y="758" font-size="10" font-family="JetBrains Mono, ui-monospace, monospace" fill="#94a3b8">srcdoc swap</text>
  </g>

  <!-- Verifier (bottom-right of triangle, amber border) -->
  <g filter="url(#shadow)">
    <rect x="540" y="660" width="160" height="110" rx="10" fill="url(#card)" stroke="#fbbf24" stroke-width="1.6"/>
    <rect x="540" y="660" width="160" height="3" fill="#fbbf24"/>
    <g transform="translate(668, 674)" stroke="#fbbf24" stroke-width="1.6" fill="none" stroke-linecap="round" stroke-linejoin="round">
      <circle cx="9" cy="9" r="7"/>
      <path d="M 6 9 L 8.5 11.5 L 12.5 7"/>
    </g>
    <text x="552" y="690" font-size="15" font-weight="700" fill="#ffffff">Verifier</text>
    <text x="552" y="714" font-size="10" font-weight="700" letter-spacing="1.4" fill="#fbbf24">RUNTIME · BROWSER</text>
    <text x="552" y="734" font-size="11" fill="#cbd5e1">judges real errors</text>
    <text x="552" y="758" font-size="10" font-family="JetBrains Mono, ui-monospace, monospace" fill="#94a3b8">Haiku</text>
  </g>

  <!-- ─── TRIANGLE ARROWS · highly visible ─── -->

  <!-- (1) Author → iframe : ship · streaming (mint solid, big curve down-left) -->
  <g stroke="#00e5a0" stroke-width="2.6" fill="none">
    <path d="M 340 522 C 280 600, 220 640, 200 660" marker-end="url(#arr-mint)"/>
  </g>
  <g transform="translate(160, 588)">
    <rect x="-8" y="-14" width="120" height="22" rx="3" fill="#0b1220"/>
    <text x="0" y="2" font-size="12" font-weight="700" fill="#00e5a0">ship · streaming</text>
  </g>

  <!-- (2) iframe → Verifier : runtime errors (dashed grey, horizontal) -->
  <g stroke="#94a3b8" stroke-width="2" fill="none" stroke-dasharray="6 4" opacity="0.85">
    <line x1="262" y1="715" x2="536" y2="715" marker-end="url(#arr)"/>
  </g>
  <g transform="translate(308, 706)">
    <rect x="-6" y="-14" width="200" height="22" rx="3" fill="#0b1220"/>
    <text x="0" y="2" font-size="12" font-weight="600" fill="#cbd5e1">runtime errors · postMessage</text>
  </g>

  <!-- (3) Verifier → Author : regen on err (amber dashed, big curve up-left) -->
  <g stroke="#fbbf24" stroke-width="2.4" fill="none" stroke-dasharray="6 4">
    <path d="M 620 660 C 620 600, 480 540, 460 524" marker-end="url(#arr-amber)"/>
  </g>
  <g transform="translate(498, 590)">
    <rect x="-6" y="-14" width="160" height="22" rx="3" fill="#0b1220"/>
    <text x="0" y="2" font-size="12" font-weight="700" fill="#fbbf24">regen on err</text>
  </g>

  <!-- "REFLEXION LOOP" label inside triangle -->
  <text x="400" y="624" font-size="11" font-weight="700" letter-spacing="2.4" fill="#00e5a0" text-anchor="middle" opacity="0.7">GROUNDED REFLEXION LOOP</text>

  <!-- ════════════════════════════════════════════════════════════════ -->
  <!-- CENTER · LIBRARY                                                   -->
  <!-- ════════════════════════════════════════════════════════════════ -->
  <ellipse cx="950" cy="565" rx="280" ry="280" fill="url(#libGlow)"/>
  <g filter="url(#libShadow)">
    <rect x="780" y="320" width="380" height="500" rx="16" fill="url(#libBg)" stroke="#00e5a0" stroke-width="2"/>
    <rect x="780" y="320" width="380" height="4" fill="#00e5a0"/>

    <!-- Title -->
    <g transform="translate(806, 354)" stroke="#00e5a0" stroke-width="2" fill="none" stroke-linecap="round" stroke-linejoin="round">
      <rect x="0" y="0" width="22" height="6" rx="1"/>
      <rect x="3" y="9" width="16" height="6" rx="1"/>
      <rect x="6" y="18" width="10" height="6" rx="1"/>
    </g>
    <text x="844" y="370" font-size="22" font-weight="700" fill="#ffffff">JS LIBRARY</text>
    <text x="800" y="398" font-size="11" font-weight="700" letter-spacing="1.8" fill="#00e5a0">LIBRARY.JS · EMBEDDING-INDEXED</text>
    <text x="800" y="420" font-size="11" font-style="italic" fill="#94a3b8">grows as more interactive content gets generated</text>

    <!-- LIVE pill -->
    <g transform="translate(1094, 344)">
      <rect x="0" y="0" width="56" height="22" rx="11" fill="#00e5a0" fill-opacity="0.12" stroke="#00e5a0" stroke-width="1"/>
      <circle cx="11" cy="11" r="3" fill="#00e5a0"/>
      <text x="20" y="15" font-size="10" font-weight="700" fill="#00e5a0">LIVE</text>
    </g>

    <!-- code listing inside library -->
    <g transform="translate(800, 440)">
      <rect x="0" y="0" width="340" height="320" rx="8" fill="#0a1322" stroke="#1e293b" stroke-width="1"/>
      <rect x="0" y="0" width="340" height="22" rx="8" fill="#0e1626"/>
      <rect x="0" y="16" width="340" height="6" fill="#0e1626"/>
      <circle cx="11" cy="11" r="3" fill="#fb7185"/>
      <circle cx="23" cy="11" r="3" fill="#fbbf24"/>
      <circle cx="35" cy="11" r="3" fill="#34d399"/>
      <text x="170" y="15" font-size="9" font-family="JetBrains Mono, ui-monospace, monospace" fill="#64748b" text-anchor="middle">library.js</text>

      <g font-family="JetBrains Mono, ui-monospace, monospace" font-size="11">
        <text x="14" y="48" fill="#a78bfa">export function</text>
        <text x="116" y="48" fill="#00e5a0" font-weight="700">darkPlot</text>
        <text x="172" y="48" fill="#cbd5e1">(div, traces) {</text>
        <text x="14" y="64" fill="#475569" font-style="italic">  // dark-themed plotly</text>
        <text x="14" y="80" fill="#cbd5e1">  ...</text>
        <text x="14" y="96" fill="#cbd5e1">}</text>

        <text x="14" y="124" fill="#a78bfa">export function</text>
        <text x="116" y="124" fill="#00e5a0" font-weight="700">scrubber</text>
        <text x="172" y="124" fill="#cbd5e1">(input, onChange) {</text>
        <text x="14" y="140" fill="#475569" font-style="italic">  // slider drives a value</text>
        <text x="14" y="156" fill="#cbd5e1">  ...</text>
        <text x="14" y="172" fill="#cbd5e1">}</text>

        <!-- recently merged highlight -->
        <rect x="6" y="186" width="328" height="56" rx="4" fill="#00e5a0" fill-opacity="0.06" stroke="#00e5a0" stroke-opacity="0.3"/>
        <text x="14" y="204" fill="#a78bfa">export function</text>
        <text x="116" y="204" fill="#00e5a0" font-weight="700">controlsRow</text>
        <text x="194" y="204" fill="#cbd5e1">(buttons) {</text>
        <text x="14" y="222" fill="#fbbf24" font-style="italic">  // merged just now ✓</text>
        <text x="280" y="204" font-size="9" font-weight="700" fill="#00e5a0">NEW</text>
        <text x="14" y="238" fill="#cbd5e1">  ...</text>

        <text x="14" y="276" fill="#475569" font-style="italic">// + more being added as we generate...</text>
      </g>
    </g>

    <!-- READ port (left edge) -->
    <circle cx="780" cy="540" r="9" fill="#0e1626" stroke="#00e5a0" stroke-width="2.5"/>
    <text x="794" y="518" font-size="11" font-weight="700" letter-spacing="1.6" fill="#00e5a0">READ</text>

    <!-- WRITE port (right edge) -->
    <circle cx="1160" cy="540" r="9" fill="#0e1626" stroke="#00e5a0" stroke-width="2.5"/>
    <text x="1146" y="518" font-size="11" font-weight="700" letter-spacing="1.6" fill="#00e5a0" text-anchor="end">WRITE</text>

    <text x="800" y="800" font-size="10" font-style="italic" fill="#64748b">→ token cost trends down monotonically</text>
  </g>

  <!-- Center cluster tag -->
  <g>
    <rect x="876" y="190" width="190" height="22" rx="3" fill="#0b1220"/>
    <text x="971" y="207" font-size="13" font-weight="700" letter-spacing="2.4" fill="#00e5a0" text-anchor="middle">SHARED · GROWS</text>
  </g>

  <!-- ─── Cross-link arrow: Author → library READ ─── -->
  <g stroke="#00e5a0" stroke-width="2.4" fill="none">
    <path d="M 480 466 C 600 466, 700 530, 770 540" marker-end="url(#arr-mint)"/>
  </g>
  <g transform="translate(560, 488)">
    <rect x="-4" y="-14" width="116" height="22" rx="3" fill="#0b1220"/>
    <text x="0" y="2" font-size="12" font-weight="700" fill="#00e5a0">RAG · top-K</text>
  </g>

  <!-- ════════════════════════════════════════════════════════════════ -->
  <!-- SYSTEM 2 outer container (right cluster)                           -->
  <!-- ════════════════════════════════════════════════════════════════ -->
  <g>
    <rect x="1180" y="200" width="680" height="450" rx="22" fill="url(#sys2Tint)" stroke="#fbbf24" stroke-width="1.5" stroke-opacity="0.32" stroke-dasharray="8 6"/>
    <rect x="1206" y="190" width="406" height="22" rx="3" fill="#0b1220"/>
    <text x="1220" y="207" font-size="13" font-weight="700" letter-spacing="2.4" fill="#fbbf24">SYSTEM 2 · SKILL INDUCTION · BACKGROUND</text>
  </g>

  <!-- System 2 cards: 3 cols × 2 rows zig-zag -->
  <!-- cols: 1210, 1414, 1618 (w=180, gap=24)  -->
  <!-- rows: y=240, y=420 (h=100) -->

  <!-- 1. generations bus (col 1, row 1) -->
  <g filter="url(#shadow)" opacity="0.95">
    <rect x="1210" y="240" width="180" height="100" rx="9" fill="url(#cardDim)" stroke="#334155" stroke-width="1.2" stroke-dasharray="4 3"/>
    <rect x="1210" y="240" width="180" height="3" fill="#fbbf24" opacity="0.7"/>
    <g transform="translate(1358, 252)" stroke="#fbbf24" stroke-width="1.5" fill="none" stroke-linecap="round" stroke-linejoin="round" opacity="0.9">
      <line x1="2" y1="3" x2="18" y2="3"/>
      <line x1="2" y1="9" x2="18" y2="9"/>
      <line x1="2" y1="15" x2="18" y2="15"/>
    </g>
    <text x="1222" y="270" font-size="14" font-weight="700" fill="#cfdcec">generations</text>
    <text x="1222" y="292" font-size="10" font-weight="700" letter-spacing="1.4" fill="#fbbf24">BUS · LISTENS</text>
    <text x="1222" y="312" font-size="11" fill="#94a3b8">every successful run</text>
    <text x="1222" y="330" font-size="10" font-family="JetBrains Mono, ui-monospace, monospace" fill="#64748b">SSE tap</text>
  </g>

  <!-- 2. Extractor (col 2, row 1) -->
  <g filter="url(#shadow)" opacity="0.95">
    <rect x="1414" y="240" width="180" height="100" rx="9" fill="url(#cardDim)" stroke="#334155" stroke-width="1.2" stroke-dasharray="4 3"/>
    <rect x="1414" y="240" width="180" height="3" fill="#fbbf24" opacity="0.7"/>
    <g transform="translate(1562, 252)" stroke="#fbbf24" stroke-width="1.5" fill="none" stroke-linecap="round" stroke-linejoin="round" opacity="0.9">
      <path d="M 2 3 L 16 3 L 12 9 L 12 16 L 6 14 L 6 9 Z"/>
    </g>
    <text x="1426" y="270" font-size="14" font-weight="700" fill="#cfdcec">Extractor</text>
    <text x="1426" y="292" font-size="10" font-weight="700" letter-spacing="1.4" fill="#fbbf24">MINE CANDIDATES</text>
    <text x="1426" y="312" font-size="11" fill="#94a3b8">small reusable chunks</text>
    <text x="1426" y="330" font-size="10" font-family="JetBrains Mono, ui-monospace, monospace" fill="#64748b">Haiku</text>
  </g>

  <!-- 3. Vector DB (col 3, row 1) -->
  <g filter="url(#shadow)" opacity="0.95">
    <rect x="1618" y="240" width="180" height="100" rx="9" fill="url(#cardDim)" stroke="#334155" stroke-width="1.2" stroke-dasharray="4 3"/>
    <rect x="1618" y="240" width="180" height="3" fill="#fbbf24" opacity="0.7"/>
    <g transform="translate(1766, 250)" stroke="#fbbf24" stroke-width="1.5" fill="none" stroke-linecap="round" stroke-linejoin="round" opacity="0.9">
      <ellipse cx="9" cy="3" rx="8" ry="2.2"/>
      <path d="M 1 3 L 1 16 C 1 18 5 19 9 19 C 13 19 17 18 17 16 L 17 3"/>
      <path d="M 1 9 C 1 11 5 12 9 12 C 13 12 17 11 17 9"/>
    </g>
    <text x="1630" y="270" font-size="14" font-weight="700" fill="#cfdcec">Vector DB</text>
    <text x="1630" y="292" font-size="10" font-weight="700" letter-spacing="1.4" fill="#fbbf24">CLUSTERED · BUCKETS</text>
    <text x="1630" y="312" font-size="11" fill="#94a3b8">recurrence groupings</text>
    <text x="1630" y="330" font-size="10" font-family="JetBrains Mono, ui-monospace, monospace" fill="#64748b">on-disk JSON</text>
  </g>

  <!-- 4. Sweeper (col 3, row 2) -->
  <g filter="url(#shadow)" opacity="0.95">
    <rect x="1618" y="420" width="180" height="100" rx="9" fill="url(#cardDim)" stroke="#334155" stroke-width="1.2" stroke-dasharray="4 3"/>
    <rect x="1618" y="420" width="180" height="3" fill="#fbbf24" opacity="0.7"/>
    <g transform="translate(1766, 432)" stroke="#fbbf24" stroke-width="1.5" fill="none" stroke-linecap="round" stroke-linejoin="round" opacity="0.9">
      <circle cx="5" cy="6" r="2.4"/>
      <circle cx="13" cy="5" r="2.4"/>
      <circle cx="9" cy="13" r="2.4"/>
      <line x1="6.5" y1="7" x2="11" y2="11"/>
      <line x1="11.5" y1="6" x2="9.5" y2="11"/>
    </g>
    <text x="1630" y="450" font-size="14" font-weight="700" fill="#cfdcec">Sweeper</text>
    <text x="1630" y="472" font-size="10" font-weight="700" letter-spacing="1.4" fill="#fbbf24">QUORUM ≥ 3</text>
    <text x="1630" y="492" font-size="11" fill="#94a3b8">unifies cluster → fn</text>
    <text x="1630" y="510" font-size="10" font-family="JetBrains Mono, ui-monospace, monospace" fill="#64748b">Sonnet</text>
  </g>

  <!-- 5. proposals.js (col 2, row 2) -->
  <g filter="url(#shadow)" opacity="0.95">
    <rect x="1414" y="420" width="180" height="100" rx="9" fill="url(#cardDim)" stroke="#334155" stroke-width="1.2" stroke-dasharray="4 3"/>
    <rect x="1414" y="420" width="180" height="3" fill="#fbbf24" opacity="0.7"/>
    <g transform="translate(1562, 430)" stroke="#fbbf24" stroke-width="1.5" fill="none" stroke-linecap="round" stroke-linejoin="round" opacity="0.9">
      <path d="M 2 1 L 12 1 L 17 6 L 17 19 L 2 19 Z"/>
      <path d="M 12 1 L 12 6 L 17 6"/>
      <path d="M 5 11 L 8 13 L 5 15"/>
      <path d="M 11 11 L 14 13 L 11 15"/>
    </g>
    <text x="1426" y="450" font-size="14" font-weight="700" fill="#cfdcec">proposals.js</text>
    <text x="1426" y="472" font-size="10" font-weight="700" letter-spacing="1.4" fill="#fbbf24">STAGING</text>
    <text x="1426" y="492" font-size="11" fill="#94a3b8">candidate fn + testCall</text>
    <text x="1426" y="510" font-size="10" font-family="JetBrains Mono, ui-monospace, monospace" fill="#64748b">on-disk file</text>
  </g>

  <!-- 6. Merger (col 1, row 2, amber-bordered prominent) -->
  <g filter="url(#shadow)" opacity="0.95">
    <rect x="1210" y="420" width="180" height="100" rx="9" fill="url(#cardDim)" stroke="#fbbf24" stroke-width="1.6" stroke-dasharray="4 3"/>
    <rect x="1210" y="420" width="180" height="3" fill="#fbbf24"/>
    <g transform="translate(1358, 430)" stroke="#fbbf24" stroke-width="1.5" fill="none" stroke-linecap="round" stroke-linejoin="round" opacity="0.95">
      <rect x="0" y="0" width="22" height="6"/>
      <circle cx="3" cy="3" r="0.8" fill="#fb7185"/>
      <circle cx="6" cy="3" r="0.8" fill="#fbbf24"/>
      <circle cx="9" cy="3" r="0.8" fill="#34d399"/>
      <rect x="0" y="6" width="22" height="14"/>
      <path d="M 8 13 L 11 16 L 16 11" stroke="#34d399" stroke-width="1.7"/>
    </g>
    <text x="1222" y="450" font-size="14" font-weight="700" fill="#cfdcec">Merger</text>
    <text x="1222" y="472" font-size="10" font-weight="700" letter-spacing="1.4" fill="#fbbf24">EXECUTION ORACLE</text>
    <text x="1222" y="492" font-size="11" fill="#94a3b8">runs in headless browser</text>
    <text x="1222" y="510" font-size="10" font-family="JetBrains Mono, ui-monospace, monospace" fill="#64748b">puppeteer + Sonnet</text>
  </g>

  <!-- system 2 forward arrows (zig-zag) -->
  <g stroke="#475569" stroke-width="1.8" fill="none">
    <line x1="1392" y1="290" x2="1410" y2="290" marker-end="url(#arr-dim)"/>
    <line x1="1596" y1="290" x2="1614" y2="290" marker-end="url(#arr-dim)"/>
    <path d="M 1708 342 C 1708 380, 1708 400, 1708 416" marker-end="url(#arr-dim)"/>
    <line x1="1616" y1="470" x2="1598" y2="470" marker-end="url(#arr-dim)"/>
    <line x1="1412" y1="470" x2="1394" y2="470" marker-end="url(#arr-dim)"/>
  </g>

  <!-- ─── Cross-link arrow: Merger → library WRITE ─── -->
  <g stroke="#00e5a0" stroke-width="2.4" fill="none">
    <path d="M 1210 470 C 1196 470, 1180 542, 1170 540" marker-end="url(#arr-mint)"/>
  </g>
  <g transform="translate(1078, 488)" text-anchor="end">
    <rect x="-90" y="-14" width="116" height="22" rx="3" fill="#0b1220"/>
    <text x="0" y="2" font-size="12" font-weight="700" fill="#00e5a0">MERGE</text>
  </g>

  <!-- ════════════════════════════════════════════════════════════════ -->
  <!-- LOOP-CLOSE arrow                                                   -->
  <!-- iframe (left cluster, bottom) → generations bus (right cluster)   -->
  <!-- routes BELOW, marked as cross-system feedback                      -->
  <!-- ════════════════════════════════════════════════════════════════ -->
  <g stroke="#475569" stroke-width="1.8" fill="none" stroke-dasharray="6 5" opacity="0.85">
    <path d="M 180 770 V 900 H 1190 V 290 H 1206" marker-end="url(#arr-dim)"/>
  </g>
  <g transform="translate(540, 875)">
    <rect x="-6" y="-14" width="320" height="22" rx="3" fill="#0b1220"/>
    <text x="0" y="2" font-size="12" font-style="italic" font-weight="600" fill="#cbd5e1">every generation → indexed (async, after ship)</text>
  </g>

  <!-- ════════════════════════════════════════════════════════════════ -->
  <!-- FOOTER · citations only                                            -->
  <!-- ════════════════════════════════════════════════════════════════ -->
  <g transform="translate(80, 1010)">
    <rect x="0" y="0" width="1760" height="48" rx="10" fill="#121a2a" stroke="#1e293b" stroke-width="1"/>
    <text x="20" y="30" font-size="12" font-weight="700" letter-spacing="1.6" fill="#00e5a0">CITATIONS</text>
    <text x="120" y="30" font-size="13" fill="#cbd5e1">
      <tspan font-weight="700" fill="#ffffff">Reflexion</tspan>
      <tspan dx="4" fill="#94a3b8">— Shinn et al. 2023</tspan>
      <tspan dx="20" font-weight="700" fill="#ffffff">·  Voyager</tspan>
      <tspan dx="4" fill="#94a3b8">— Wang et al. 2023 (NVIDIA)</tspan>
      <tspan dx="20" font-weight="700" fill="#ffffff">·  Building Effective Agents</tspan>
      <tspan dx="4" fill="#94a3b8">— Anthropic, Dec 2024</tspan>
    </text>
  </g>
</svg>
